<?xml version="1.0" standalone="no"?>
<!DOCTYPE svg PUBLIC "-//W3C//DTD SVG 20010904//EN"
 "http://www.w3.org/TR/2001/REC-SVG-20010904/DTD/svg10.dtd">
<svg version="1.0" xmlns="http://www.w3.org/2000/svg"
 width="1000.000000pt" height="1000.000000pt" viewBox="0 0 1000.000000 1000.000000"
 preserveAspectRatio="xMidYMid meet">
<metadata>
Created by potrace 1.11, written by Peter Selinger 2001-2013
</metadata>
<g transform="translate(0.000000,1000.000000) scale(0.100000,-0.100000)"
fill="#000000" stroke="none">
<path d="M4870 8989 c-2648 -373 -4818 -678 -4821 -679 -8 0 -19 -3418 -19
-5864 l0 -1999 113 -62 c63 -33 118 -60 123 -58 5 1 2186 309 4848 682 2661
374 4840 682 4842 684 3 2 8 1771 12 3931 l7 3927 -111 60 c-78 41 -122 59
-145 58 -19 -1 -2201 -307 -4849 -680z m4103 -1927 c246 -121 397 -442 414
-877 20 -510 -157 -1036 -449 -1341 -142 -148 -175 -165 -607 -308 -1541 -512
-6645 -2197 -6684 -2207 -27 -6 -85 -10 -136 -7 -78 4 -99 9 -163 40 -185 93
-326 326 -385 638 -24 132 -24 492 0 635 52 299 147 550 287 765 85 129 240
282 337 333 49 26 1216 416 3575 1196 1927 637 3512 1161 3523 1164 11 3 65 5
121 4 91 -2 106 -5 167 -35z"/>
<path d="M6570 5191 l-2195 -727 -3 -86 -3 -85 2211 731 2210 731 0 83 c0 59
-3 82 -12 81 -7 -1 -1001 -328 -2208 -728z"/>
<path d="M5205 5309 c-929 -308 -1923 -636 -2207 -730 l-518 -170 0 -85 c0
-77 2 -85 18 -80 798 263 4395 1455 4398 1459 3 2 4 41 2 85 l-3 80 -1690
-559z"/>
<path d="M5105 4061 l-2200 -729 -3 -81 c-2 -61 0 -81 10 -81 7 0 1003 328
2213 728 l2200 727 3 83 c2 62 0 82 -10 81 -7 0 -1003 -328 -2213 -728z"/>
<path d="M1705 4486 c-156 -50 -307 -200 -414 -415 -174 -345 -215 -747 -110
-1076 50 -159 148 -288 259 -343 47 -23 68 -27 141 -27 79 0 91 3 164 39 90
45 214 160 279 259 94 144 165 322 208 517 20 91 23 132 22 315 0 195 -2 217
-26 307 -74 274 -233 439 -421 437 -34 0 -80 -6 -102 -13z m171 -286 c85 -41
152 -140 190 -275 25 -92 30 -300 10 -415 -36 -207 -115 -377 -226 -490 -136
-139 -283 -158 -400 -53 -100 90 -152 247 -152 458 -1 419 224 795 476 795 40
0 74 -7 102 -20z"/>
<path d="M1682 4095 c-119 -60 -225 -243 -273 -470 -8 -33 -13 -118 -14 -190
0 -108 4 -143 23 -205 75 -240 228 -292 379 -127 199 218 260 668 123 904 -58
102 -146 134 -238 88z m95 -186 c101 -38 151 -197 119 -379 -15 -83 -64 -199
-105 -247 -66 -78 -163 -97 -224 -43 -159 140 -77 595 119 665 48 17 56 18 91
4z"/>
<path d="M1667 3771 c-59 -65 -81 -138 -82 -266 0 -122 14 -166 61 -187 33
-15 70 12 106 78 70 128 77 301 16 387 -27 38 -59 35 -101 -12z"/>
</g>
</svg>
